<svg width="1578" height="412" xmlns="http://www.w3.org/2000/svg" xmlns:xlink="http://www.w3.org/1999/xlink" overflow="hidden"><defs><clipPath id="clip0"><rect x="1109" y="1079" width="1578" height="412"/></clipPath></defs><g clip-path="url(#clip0)" transform="translate(-1109 -1079)"><path d="M1346.17 1079 1109 1490 1583 1490 1346.17 1079ZM1291.94 1440.86 1291.94 1284.16 1296.75 1262.51 1432.32 1340.86 1448.8 1355.98 1313.22 1434.33 1291.94 1440.86ZM1298.81 1253.23 1305.33 1223.68 1402.12 1313.02 1298.81 1253.23ZM1283.02 1443.61 1254.19 1452.54 1283.02 1324.02C1283.02 1324.02 1283.02 1443.61 1283.02 1443.61ZM1456.01 1362.16 1478.32 1382.44 1352.35 1421.96 1456.01 1362.16ZM1309.79 1212.33 1319.06 1187.59 1428.89 1321.96 1309.79 1212.33ZM1242.52 1454.95 1216.43 1459.42 1277.87 1296.53 1242.52 1454.95ZM1486.21 1391.72 1502.68 1411.99 1331.41 1440.17 1486.21 1391.72ZM1322.83 1171.1 1332.44 1151.17 1449.83 1326.43 1322.83 1171.1ZM1200.3 1464.23 1178.33 1465.6 1271.35 1276.25 1200.3 1464.23ZM1515.04 1423.68 1527.4 1441.89 1317 1455.98 1515.04 1423.68ZM1464.24 1319.9 1337.25 1130.2 1346.17 1114.74 1464.24 1319.9ZM1258.3 1266.97 1157.74 1472.13 1139.89 1472.13 1258.3 1266.97ZM1315.28 1472.13 1543.19 1456.67 1552.11 1472.13 1315.28 1472.13Z" fill="#FFD800" fill-rule="evenodd"/><path d="M1697 1161.16C1697 1180.67 1685.68 1193 1667.5 1193 1649.32 1193 1638 1180.67 1638 1161.5 1638 1142.33 1650.01 1130 1668.19 1130 1685.34 1130.34 1697 1142.67 1697 1161.16ZM1647.26 1161.16C1647.26 1175.88 1655.15 1185.81 1667.5 1185.81 1679.85 1185.81 1687.4 1175.88 1687.4 1161.5 1687.4 1147.12 1679.51 1137.19 1667.5 1137.19 1655.15 1137.19 1647.26 1147.12 1647.26 1161.16L1647.26 1161.16Z" fill="#FFFFFF" fill-rule="evenodd"/><path d="M1710.34 1160.13C1710.34 1155.31 1710.34 1150.5 1710 1147.06L1717.91 1147.06C1717.91 1148.78 1718.26 1151.87 1718.26 1154.28L1718.26 1154.28C1721.35 1148.78 1727.2 1145.68 1733.74 1146.03 1745.09 1146.03 1753 1155.31 1753 1168.73 1753 1182.83 1745.09 1192.8 1733.74 1192.8 1727.54 1192.8 1721.7 1189.71 1718.6 1184.2L1718.6 1184.2C1718.6 1185.92 1718.94 1192.8 1718.94 1195.21L1718.94 1210 1710.69 1210 1710.34 1160.13ZM1718.6 1169.41C1718.6 1178.36 1724.45 1185.92 1731.67 1185.92 1738.9 1185.92 1744.06 1178.7 1744.06 1169.41 1744.06 1159.44 1739.24 1152.91 1731.67 1152.91 1724.1 1152.91 1718.6 1160.13 1718.6 1169.41Z" fill="#FFFFFF" fill-rule="evenodd"/><path d="M1771.34 1171.57C1771.34 1179.52 1777.59 1186.09 1785.58 1186.09 1785.93 1186.09 1786.63 1186.09 1786.97 1186.09 1791.49 1186.09 1796.01 1185.05 1800.18 1182.63L1800.53 1190.24C1796.01 1191.96 1791.49 1193 1786.63 1193 1771.69 1193 1763 1184.01 1763 1169.15 1763 1154.99 1771.69 1146 1784.54 1146 1796.36 1146 1804 1153.26 1804 1168.12 1804 1169.15 1804 1170.54 1804 1171.57L1771.34 1171.57ZM1795.66 1165.35C1795.66 1156.71 1790.8 1152.57 1784.2 1152.57 1777.59 1152.57 1772.38 1157.4 1771.69 1165.35L1795.66 1165.35Z" fill="#FFFFFF" fill-rule="evenodd"/><path d="M1824.28 1154.3C1827.38 1149.11 1833.24 1146 1839.1 1146 1851.86 1146 1856 1154.3 1856 1166.41L1856 1192 1847.72 1192 1847.72 1169.87C1847.72 1161.22 1847.03 1152.92 1837.38 1152.92 1832.9 1152.92 1828.76 1155.34 1826.69 1159.49 1824.97 1162.95 1824.28 1166.75 1824.62 1170.56L1824.62 1192 1816.34 1192 1816.34 1160.18C1816.34 1155.34 1816.34 1150.5 1816 1147.04L1824.28 1147.04C1823.93 1149.11 1824.28 1151.88 1824.28 1154.3L1824.28 1154.3Z" fill="#FFFFFF" fill-rule="evenodd"/><path d="M1919.32 1132.29C1917.96 1131.94 1916.59 1131.6 1915.23 1131.6 1909.78 1131.6 1907.74 1134.72 1907.74 1142.71L1907.74 1147.22 1919.66 1147.22 1919.66 1153.81 1907.74 1153.81 1907.74 1192 1899.22 1192 1899.22 1153.81 1889 1153.81 1889 1147.22 1899.56 1147.22 1899.56 1143.05C1899.56 1132.29 1903.31 1125 1913.87 1125 1915.91 1125 1917.96 1125.35 1920 1125.69L1919.32 1132.29Z" fill="#FFFFFF" fill-rule="evenodd"/><path d="M1972 1169.85C1972 1182.63 1961.71 1193 1949.02 1193 1936.33 1193 1926.04 1182.63 1926.04 1169.85L1926.04 1169.85C1925.35 1157.4 1934.61 1146.69 1946.96 1146 1947.65 1146 1948.33 1146 1949.02 1146 1962.4 1146 1972 1156.02 1972 1169.85ZM1934.95 1169.85C1934.95 1179.52 1940.79 1186.09 1949.36 1186.09 1957.94 1186.09 1963.42 1179.52 1963.42 1169.85 1963.42 1160.17 1957.59 1152.91 1949.02 1152.91 1940.44 1152.91 1934.95 1159.82 1934.95 1169.85Z" fill="#FFFFFF" fill-rule="evenodd"/><path d="M1992.14 1154.58C1994.24 1149.43 1999.51 1146.34 2004.78 1146 2006.19 1146 2007.59 1146 2009 1146.69L2009 1154.58C2007.59 1153.9 2005.84 1153.9 2004.43 1153.9 1996.7 1153.9 1991.78 1160.42 1991.78 1171.75L1991.78 1192 1983.35 1192 1983.35 1160.76C1983.35 1155.96 1983.35 1151.15 1983 1147.72L1991.43 1147.72C1991.78 1149.78 1992.14 1152.18 1992.14 1154.58L1992.14 1154.58Z" fill="#FFFFFF" fill-rule="evenodd"/><path d="M2052 1192 2043 1192 2043 1131 2052 1131 2052 1192Z" fill="#FFFFFF" fill-rule="evenodd"/><path d="M2077.28 1154.3C2080.38 1149.11 2086.24 1146 2092.1 1146 2104.86 1146 2109 1154.3 2109 1166.41L2109 1192 2100.72 1192 2100.72 1169.87C2100.72 1161.22 2100.03 1152.92 2090.38 1152.92 2085.9 1152.92 2081.76 1155.34 2079.69 1159.49 2077.97 1162.95 2077.28 1166.75 2077.62 1170.56L2077.62 1192 2069.34 1192 2069.34 1160.18C2069.34 1155.34 2069.34 1150.5 2069 1147.04L2077.28 1147.04C2076.93 1149.11 2077.28 1151.88 2077.28 1154.3L2077.28 1154.3Z" fill="#FFFFFF" fill-rule="evenodd"/><path d="M2131.62 1154.3C2134.72 1149.11 2140.59 1146 2146.45 1146 2159.21 1146 2163 1154.3 2163 1166.41L2163 1192 2154.72 1192 2154.72 1169.87C2154.72 1161.22 2154.03 1152.92 2144.38 1152.92 2139.9 1152.92 2135.76 1155.34 2133.69 1159.49 2131.97 1162.95 2131.28 1166.75 2131.62 1170.56L2131.62 1192 2123.34 1192 2123.34 1160.18C2123.34 1155.34 2123.34 1150.5 2123 1147.04L2131.28 1147.04C2131.28 1149.11 2131.28 1151.88 2131.62 1154.3L2131.62 1154.3Z" fill="#FFFFFF" fill-rule="evenodd"/><path d="M2220.97 1169.84C2221.65 1181.93 2212.05 1192.65 2200.06 1192.99 2199.37 1192.99 2198.69 1192.99 2198 1192.99 2185.66 1193.34 2175.38 1183.66 2175.04 1171.22 2175.04 1170.88 2175.04 1170.19 2175.04 1169.84 2174.35 1157.4 2183.6 1146.69 2195.94 1146 2196.63 1146 2197.32 1146 2198 1146 2211.71 1146 2220.97 1156.02 2220.97 1169.84ZM2184.29 1169.84C2184.29 1179.52 2190.12 1186.08 2198.34 1186.08 2206.57 1186.08 2212.4 1179.52 2212.4 1169.84 2212.4 1160.17 2206.57 1152.91 2198 1152.91 2189.43 1152.91 2184.29 1159.82 2184.29 1169.84Z" fill="#FFFFFF" fill-rule="evenodd"/><path d="M2244.73 1174.35C2245.77 1177.12 2247.15 1181.96 2247.85 1185.08L2247.85 1185.08C2248.54 1181.96 2250.27 1176.77 2251.31 1174.35L2260.33 1147 2269 1147 2252.36 1192 2242.3 1192 2226 1147 2235.02 1147 2244.73 1174.35Z" fill="#FFFFFF" fill-rule="evenodd"/><path d="M2278.84 1149.77C2283.33 1147.37 2288.51 1146 2293.69 1146 2306.82 1146 2311.65 1153.55 2311.65 1163.84 2311.65 1169.67 2311.65 1176.54 2311.65 1178.25 2311.65 1183.05 2311.65 1188.54 2312 1191.63L2304.4 1191.63C2304.4 1190.95 2304.4 1189.23 2304.4 1187.86 2304.4 1186.49 2304.4 1185.11 2304.4 1183.74L2304.4 1183.74C2301.29 1189.23 2295.76 1192.32 2289.55 1191.97 2279.87 1191.97 2274 1186.83 2274 1178.59 2274 1169.33 2282.64 1164.18 2297.49 1164.18 2299.22 1164.18 2301.64 1164.18 2303.71 1164.53L2303.71 1164.18C2303.71 1156.64 2299.91 1152.86 2292.31 1152.86 2287.47 1152.86 2282.98 1154.58 2279.18 1156.98L2278.84 1149.77ZM2299.56 1170.36C2288.51 1170.36 2282.98 1173.1 2282.98 1178.94 2282.98 1183.4 2286.44 1185.8 2291.62 1185.8 2296.45 1185.8 2300.6 1183.4 2302.67 1179.28 2303.71 1176.54 2304.4 1173.45 2304.05 1170.36 2303.02 1170.36 2301.64 1170.36 2299.56 1170.36L2299.56 1170.36Z" fill="#FFFFFF" fill-rule="evenodd"/><path d="M2338.99 1147.31 2351.3 1147.31 2351.3 1153.79 2338.99 1153.79 2338.99 1173.24C2338.99 1180.4 2340.04 1185.18 2346.73 1185.18 2348.48 1185.18 2350.24 1184.84 2351.65 1184.15L2352 1190.64C2349.54 1191.32 2347.08 1192 2344.62 1192 2333.01 1192 2330.55 1185.18 2330.55 1175.62L2330.55 1153.79 2320 1153.79 2320 1147.31 2330.55 1147.31 2330.55 1136.73 2338.99 1134 2338.99 1147.31Z" fill="#FFFFFF" fill-rule="evenodd"/><path d="M2371 1139.3 2362 1139.3 2362 1130 2371 1130 2371 1139.3ZM2370.67 1192 2362.33 1192 2362.33 1147.22 2370.67 1147.22 2370.67 1192Z" fill="#FFFFFF" fill-rule="evenodd"/><path d="M2428.96 1170.01C2429.65 1182.02 2420.4 1192.31 2408.06 1192.99 2407.37 1192.99 2406.69 1192.99 2406 1192.99 2393.66 1193.33 2383.38 1183.73 2383.04 1171.38 2383.04 1170.7 2383.04 1170.35 2383.04 1169.67 2382.35 1157.32 2391.6 1146.69 2403.94 1146 2404.63 1146 2405.31 1146 2406 1146 2419.37 1146.34 2428.96 1156.29 2428.96 1170.01ZM2391.95 1170.01C2391.95 1179.61 2397.77 1186.13 2406 1186.13 2414.23 1186.13 2420.05 1179.61 2420.05 1170.01 2420.05 1160.41 2414.23 1153.2 2405.66 1153.2 2397.09 1153.2 2391.95 1160.06 2391.95 1170.01Z" fill="#FFFFFF" fill-rule="evenodd"/><path d="M2449.55 1154.3C2452.62 1149.11 2458.44 1146 2464.25 1146 2476.9 1146 2481 1154.3 2481 1166.41L2481 1192 2472.79 1192 2472.79 1169.87C2472.79 1161.22 2471.77 1152.92 2462.54 1152.92 2458.09 1152.92 2453.99 1155.34 2451.6 1159.49 2449.89 1162.95 2449.21 1166.75 2449.55 1170.56L2449.55 1192 2441.34 1192 2441.34 1160.18C2441.34 1155.34 2441.34 1150.5 2441 1147.04L2449.21 1147.04C2449.21 1149.11 2449.21 1151.88 2449.55 1154.3L2449.55 1154.3Z" fill="#FFFFFF" fill-rule="evenodd"/><path d="M1683.71 1255 1683.71 1363.59 1684.74 1363.59 1771.34 1255 1823.23 1255 1735.25 1365.65 1849 1490 1790.58 1490 1683.71 1374.56 1683.71 1490 1638 1490 1638 1255 1683.71 1255Z" fill="#FFFFFF" fill-rule="evenodd"/><path d="M1910.91 1255 2051.28 1419.09 2051.28 1255 2096 1255 2096 1490 2056.78 1490 1915.72 1323.17 1915.72 1490 1871 1490 1871 1255 1910.91 1255Z" fill="#FFFFFF" fill-rule="evenodd"/><path d="M2193 1255 2193 1490 2147 1490 2147 1255 2193 1255Z" fill="#FFFFFF" fill-rule="evenodd"/><path d="M2285.28 1255 2363.02 1347.49 2440.41 1255 2481 1255 2481 1490 2435.6 1490 2435.6 1324.88 2434.22 1324.88 2366.11 1407.78 2359.58 1407.78 2291.12 1324.88 2289.75 1324.88 2289.75 1490 2244 1490 2244 1255 2285.28 1255Z" fill="#FFFFFF" fill-rule="evenodd"/><path d="M2684.59 1255 2684.59 1290.73 2577.71 1290.73 2577.71 1352.56 2680.13 1352.56 2680.13 1388.29 2577.71 1388.29 2577.71 1455.27 2687 1455.27 2687 1491 2532 1491 2532 1255 2684.59 1255Z" fill="#FFFFFF" fill-rule="evenodd"/></g></svg>