<svg xmlns="http://www.w3.org/2000/svg" fill="none" viewBox="0 0 600 600"><path fill="#fff" d="M428.5 142.6c-12.2-38-40-91.3-44-98.8l-3.4-6.6-7-13.4L361.8 0l-18 127.6-.6 4.6a754 754 0 0 0-86 0l-.5-4.6-6.3-44.7L238.6 0l-12.8 23.8-9.2 18-1 2c-4 7.5-32.1 61-44.4 98.9-35.5 6.9-54.8 14.2-54.8 14.2V467L300 600l183.6-133V157s-19.3-7.4-55-14.3"/><path fill="#3B3B63" d="M379 383.4h-79.1V247.9l-80.3 131.5-12.5 135 91.5 67 1.3.8 93.6-68.2z"/><path fill="#DBDBDB" d="M298.5 580.9 128.1 457.3v-288s63-24 170.6-24 170.2 24 170.2 24v288z"/><path fill="#C6C6C6" d="M301 145.3h-.3v435.5l170.4-123.5v-288s-62.5-24-170.1-24"/><path fill="#3B3B63" d="m393 513.7-14.4-130.3h-79.2v198.5z"/><path fill="#53537A" d="m207 514.5 92.9 67.7V248l-80.3 131.5z"/><path fill="#BC9375" d="M339.8 476c0 22.3-20.5 33.4-39.4 33.4s-39.8-11-39.8-33.4"/><path fill="#073251" d="M328.2 463.3c0 26.2-13.8 33.2-28 33.2s-28-7-28-33.2"/><path fill="#fff" d="M300.2 487.5q-22.6.1-22.5-34.4h7.2c0 27.1 10.4 27.1 15.3 27.1s15.3 0 15.3-27.1h7.2q0 34.5-22.5 34.4"/><path fill="#C49A7E" d="M420.2 186c0-28.4-47-117.3-47-117.3l-15.9 112.8-14.2 23.8-42.8 1.8-.2.3v-.3l-42.7-1.8-14.3-23.8-16-112.8s-47 89-47 117.2l20 54.4s-10 91.2-5.5 103.2 36.2 51.9 36.2 51.9 0 33.6 8.6 57.7a34 34 0 0 0 32.9 24.3c20 0 27.8-18.7 27.8-18.7s8 18.7 28 18.7c13 0 26.7-7 33-24.3 8.6-24.1 8.5-57.7 8.5-57.7s31.7-40 36.2-52-5.4-103.1-5.4-103.1z"/><path fill="#D8B7A0" d="M300.2 207.3v-.3l-42.8-1.8-14.3-23.8-16-112.8s-47 89-47 117.2l20 54.4s-10 91.2-5.5 103.2 36.2 51.9 36.2 51.9 0 33.6 8.6 57.7a34 34 0 0 0 32.9 24.3c20 0 27.8-18.7 27.8-18.7l.1.2z"/><path fill="#3B3B63" d="M400.8 245.6c-3.6-7.8 1.6-26 1.6-26-29.7-31-37.1-95.5-37.1-95.5-5.6 20.3-17.6 80.2-17.6 80.2s-22.2-8.4-47.4-8.4H296v253l1.8 2.7v-1.3h1.2v1.3-1.3h3.4v1.3l20.6-30.4 4.4-85.6 25.6 29.7 33 9.7 12.3-8.8c5.2-7.5 7-13.8 8.2-17.1 4.6-12-5.7-103.5-5.7-103.5"/><path fill="#53537A" d="M300.4 195.9c-25.3 0-47.4 8.4-47.4 8.4s-12-59.9-17.6-80.2c0 0-7.4 64.5-37.1 95.4 0 0 5.2 18.3 1.5 26.1 0 0-10.2 91.5-5.7 103.5 1.3 3.3 3 9.6 8.3 17l12.3 9 32.9-9.8 25.5-29.7 4.5 85.6 20.5 30.4v-1.4h2.3z"/><path fill="#333152" d="M360 302.8h-38.5v.5a25 25 0 0 0 25.2 24.6c13.6 0 25.2-11 25.2-24.6v-.5z"/><path fill="#fff" d="M331 302.8v.5a14.4 14.4 0 1 0 28.9 0v-.5z"/><path fill="#333152" d="M350 302.8h-7c.9.3 1.3 2.2 1.1 3.5-.2 2-1.9 3.3-3.8 3.3a6.4 6.4 0 0 0 12.6-.4c.4-2.6-.9-6.4-3-6.4m-82.8 0h-38.4v.5a25 25 0 0 0 25.2 24.6c13.6 0 25.2-11 25.2-24.6v-.5z"/><path fill="#fff" d="M238.3 302.8v.5c0 8 6.4 14.6 14.4 14.6s14.4-6.5 14.4-14.6v-.5z"/><path fill="#333152" d="M257.2 302.8h-7c.9.3 1.3 2.2 1.1 3.5-.2 2-1.9 3.3-3.8 3.3a6.4 6.4 0 0 0 12.6-.5c.4-2.5-.9-6.3-3-6.3"/><path fill="#C49A7E" d="M357 291.2c1.6-1.8 15.3-17.6-3-17.6-16.5 0-28.5 13.6-31.6 17.6z"/><path fill="#D8B7A0" d="M278 291.2c-3.2-4-15.1-17.6-31.7-17.6-18.3 0-4.6 15.8-3 17.6z"/><path fill="#53537A" d="M219.8 302.7H290V296h-70z"/><path fill="#333152" d="M402 207.8c-20.3-29.1-26.7-76.4-27.2-80.7l3.7-26.4c15.1 31.3 31 68.4 32 83.9zm-5 132.4c-2.8 7.2-22 33.2-34.8 49.3l-2.1 2.7v3.4c0 .3 0 32.2-8 54.4a25 25 0 0 1-23.9 17.8c-13.2 0-19-12.3-19.2-12.8l-.7-11.5H292l-.7 11.5c-.2.5-5.8 12.8-19 12.8-5.3 0-18-1.7-23.9-17.8-8-22.2-8-54-8-54.4v-3.4l-2-2.7c-12.8-16.1-32-42-34.8-49.2-2.2-7.6 1.4-57.2 6-98.7l.2-2.3-3.6-9.9a136 136 0 0 0 27-48.5l.6 4.2 19.7 32.8 7.7-3.4c.2 0 19.8-8.6 39-8.6 19 0 39 8.6 39.1 8.6l7.7 3.4 19.6-32.8.7-5.5a140 140 0 0 0 27 49.3l-3.7 10.4.2 2.3c4.6 41.5 8.2 91 6 98.6M288.2 483.9q4-1.7 7-4 2.8.6 5 .5 2.2.1 5-.5 3 2.3 7 4a19 19 0 0 1-12 3.9q-7 0-12-3.9m12.2 20.9c-10.5 0-25.5-4.8-29.3-17.5h1.2q3 0 5.8-.4c5.3 7.6 13.7 9.9 22.1 9.9s16.8-2.3 22.2-9.9q2.7.5 5.7.5h1.2c-3.7 12.6-18.5 17.4-28.9 17.4M190 184.6c1-15.5 17-52.6 32-84l4 28.7c-1.4 10.7-8.5 52.6-27.3 79zm239.7 1.6c0-30-43-112.6-48-121.9l-13.8-26.2-19.7 140.3-9.1 15.2c-8.8-3-23.8-7.2-38.9-7.2s-30 4.2-38.7 7.2l-9-15.2-7-49.2v-.2l-12.9-91-14.1 26.2c-5 9.3-48.4 92-48.4 121.9v1.7l19.9 53.8c-3.2 29.3-9.3 93-4.5 105.5 3 7.8 14.4 23.9 24.1 36.8l-13 123.3 18 12.9 9.4-89.8a146 146 0 0 0 6.4 26.3A46 46 0 0 0 251 482c.5 27.5 25.6 42.3 49.3 42.3 23.5 0 48.4-14.8 49-42.3a46 46 0 0 0 20.6-25.3c3.1-8.6 5.2-18.3 6.5-27.3l9.6 90 18-13.3-13-122.5a224 224 0 0 0 23.7-36.4c4.8-12.4-1.6-76.2-4.7-105.5l19.5-53.8z"/><path fill="#333152" d="M322.8 410h-45s-6.1 10.7-6.1 14.2c0 10.3 27.7 26.8 27.7 26.8s29.4-17 29.4-26.8c0-4.7-6-14.2-6-14.2"/><path fill="#C49A7E" d="M314.1 441.5c-2.5-4.5-5.7-5.4-7.2-1.9s-.6 10 1.9 14.5 5.7 5.4 7.2 1.9.7-10-1.9-14.5"/><path fill="#D8B7A0" d="M286.3 441.5c-2.5 4.5-3.4 11-1.9 14.5s4.7 2.7 7.3-1.9 3.3-11 1.8-14.5-4.7-2.6-7.2 1.9"/></svg>